<svg xmlns="http://www.w3.org/2000/svg" viewBox="0 0 96 96" fill="none">
  <defs>
    <linearGradient id="grad" x1="12" y1="16" x2="84" y2="80" gradientUnits="userSpaceOnUse">
      <stop offset="0" stop-color="#2962FF" />
      <stop offset="1" stop-color="#00BFA5" />
    </linearGradient>
  </defs>
  <rect x="14" y="20" width="68" height="48" rx="10" fill="url(#grad)" opacity="0.9" />
  <rect x="22" y="28" width="52" height="32" rx="6" fill="#ffffff" opacity="0.92" />
  <path d="M46 34h12l-4.5 6 4.5 6H46l-4.5-6 4.5-6Z" fill="#2962FF" opacity="0.85" />
  <path d="M34 44h12l-4.5 6 4.5 6H34l-4.5-6 4.5-6Z" fill="#00BFA5" opacity="0.85" />
  <path d="M58 44h12l-4.5 6 4.5 6H58l-4.5-6 4.5-6Z" fill="#2962FF" opacity="0.85" />
  <circle cx="34" cy="70" r="8" fill="#2962FF" opacity="0.9" />
  <circle cx="62" cy="70" r="8" fill="#00BFA5" opacity="0.9" />
  <path d="M34 66v8m-4-4h8" stroke="#ffffff" stroke-width="2.5" stroke-linecap="round" />
  <path d="M60 70h6" stroke="#ffffff" stroke-width="2.5" stroke-linecap="round" />
</svg>
