<svg xmlns="http://www.w3.org/2000/svg" viewBox="0 0 120 120" role="img" aria-hidden="true">
  <defs>
    <linearGradient id="ir-bg" x1="15%" y1="0%" x2="85%" y2="100%">
      <stop offset="0%" stop-color="#2563eb" />
      <stop offset="100%" stop-color="#7c3aed" />
    </linearGradient>
    <linearGradient id="ir-photo" x1="0%" y1="0%" x2="100%" y2="100%">
      <stop offset="0%" stop-color="#bbdefb" />
      <stop offset="100%" stop-color="#e0e7ff" />
    </linearGradient>
  </defs>
  <rect x="10" y="16" width="100" height="88" rx="20" ry="20" fill="url(#ir-bg)" opacity="0.92" />
  <rect x="22" y="30" width="76" height="60" rx="14" ry="14" fill="#ffffff" opacity="0.98" />
  <rect x="36" y="44" width="44" height="32" rx="10" ry="10" fill="url(#ir-photo)" />
  <path d="M40 68l10-12 8 10 7-8 11 18H40z" fill="#90caf9" />
  <g fill="none" stroke="#5b21b6" stroke-width="4" stroke-linecap="round">
    <path d="M34 38h-8a6 6 0 0 0-6 6v8" />
    <path d="M86 82h8a6 6 0 0 0 6-6v-8" />
  </g>
  <path d="M80 48v-12h-12" fill="none" stroke="#5b21b6" stroke-width="4" stroke-linecap="round" stroke-linejoin="round" />
  <path d="M40 92h12v-12" fill="none" stroke="#5b21b6" stroke-width="4" stroke-linecap="round" stroke-linejoin="round" />
  <path d="M76 72l10 10" stroke="#22d3ee" stroke-width="5" stroke-linecap="round" />
  <path d="M84 80l8 8" stroke="#0ea5e9" stroke-width="5" stroke-linecap="round" opacity="0.7" />
</svg>
