<svg xmlns="http://www.w3.org/2000/svg" viewBox="0 0 120 120" role="img" aria-hidden="true">
  <rect x="10" y="16" width="100" height="88" rx="22" fill="#f1f3f4" stroke="#d2d7dc" stroke-width="2" />
  <rect x="32" y="40" width="56" height="40" rx="12" fill="#e8f0fe" stroke="#aecbfa" stroke-width="2" />
  <path d="M38 70l14-18 11 14 9-10 18 24H38z" fill="#8ab4f8" />
  <circle cx="46" cy="48" r="6" fill="#0b57d0" opacity="0.85" />
  <g fill="none" stroke="#1a73e8" stroke-width="4" stroke-linecap="round" stroke-linejoin="round">
    <path d="M28 36h-8a8 8 0 0 0-8 8v8" />
    <path d="M92 84h8a8 8 0 0 0 8-8v-8" />
    <path d="M72 36h16" />
    <path d="M36 84v-16" />
  </g>
  <g fill="#1a73e8">
    <path d="M72 32 80 40 72 48z" />
    <path d="M32 68 40 60 48 68z" />
  </g>
</svg>
