<svg xmlns="http://www.w3.org/2000/svg" viewBox="0 0 120 120" role="img" aria-hidden="true">
  <rect x="10" y="16" width="100" height="88" rx="22" fill="#f1f3f4" stroke="#d2d7dc" stroke-width="2" />
  <rect x="34" y="28" width="44" height="64" rx="12" fill="#ffffff" stroke="#c4c8cc" stroke-width="2" />
  <path d="M40 44h24" stroke="#5f6368" stroke-width="4" stroke-linecap="round" />
  <path d="M40 56h18" stroke="#5f6368" stroke-width="4" stroke-linecap="round" />
  <path d="M40 68h24" stroke="#5f6368" stroke-width="4" stroke-linecap="round" opacity="0.6" />
  <circle cx="76" cy="74" r="14" fill="#e8f0fe" stroke="#0b57d0" stroke-width="3" />
  <path d="M84 82 98 96" stroke="#0b57d0" stroke-width="4" stroke-linecap="round" />
  <path d="M72 68h8v8" stroke="#0b57d0" stroke-width="4" stroke-linecap="round" stroke-linejoin="round" />
  <path d="M58 90c0 10 12 16 12 16s12-6 12-16" fill="#1a73e8" opacity="0.25" />
  <g fill="#1a73e8">
    <path d="M30 40h6v6h-6z" />
    <path d="M26 60h8v4h-8z" opacity="0.75" />
    <path d="M32 52h6v4h-6z" opacity="0.5" />
  </g>
  <g fill="#0b57d0" opacity="0.7">
    <path d="M92 48h4v4h-4z" />
    <path d="M88 56h3v3h-3z" />
  </g>
</svg>
