<svg xmlns="http://www.w3.org/2000/svg" viewBox="0 0 96 96" role="img" aria-labelledby="title desc">
  <title>Metadata Scrubber icon</title>
  <desc>Stylized document with stars representing cleaned metadata.</desc>
  <defs>
    <linearGradient id="grad" x1="0%" y1="0%" x2="100%" y2="100%">
      <stop offset="0%" stop-color="#82b1ff" />
      <stop offset="100%" stop-color="#2962ff" />
    </linearGradient>
  </defs>
  <rect x="8" y="8" width="80" height="80" rx="16" fill="url(#grad)" />
  <rect x="24" y="22" width="40" height="8" rx="4" fill="rgba(255,255,255,0.85)" />
  <rect x="24" y="38" width="48" height="8" rx="4" fill="rgba(255,255,255,0.75)" />
  <rect x="24" y="54" width="32" height="8" rx="4" fill="rgba(255,255,255,0.65)" />
  <path d="M60 68l8 8" stroke="rgba(0,0,0,0.12)" stroke-width="10" stroke-linecap="round" />
  <circle cx="72" cy="72" r="16" fill="#ffffff" opacity="0.92" />
  <path d="M72 58l2.2 6.8h7.1l-5.7 4.1 2.2 6.9L72 71.6l-5.8 4.2 2.2-6.9-5.6-4.1h7z" fill="#2962ff" />
  <circle cx="40" cy="74" r="5" fill="#ffffff" opacity="0.9" />
  <path d="M40 66l1.5 4.4h4.6l-3.7 2.7 1.5 4.6L40 74.4l-3.8 2.7 1.5-4.6-3.6-2.7h4.5z" fill="#1de9b6" />
</svg>
