<svg xmlns="http://www.w3.org/2000/svg" viewBox="0 0 120 120" role="img" aria-hidden="true">
  <rect x="10" y="16" width="100" height="88" rx="22" fill="#f1f3f4" stroke="#d2d7dc" stroke-width="2" />
  <path d="M28 38h64a12 12 0 0 1 12 12v32a12 12 0 0 1-12 12H28a12 12 0 0 1-12-12V50a12 12 0 0 1 12-12z" fill="#ffffff" stroke="#c4c8cc" stroke-width="2" />
  <path d="M28 46h64v12H28z" fill="#e8f0fe" />
  <path d="M92 50 60 74 28 50" fill="none" stroke="#1a73e8" stroke-width="4" stroke-linecap="round" stroke-linejoin="round" />
  <path d="M28 94h64" stroke="#1a73e8" stroke-width="4" stroke-linecap="round" opacity="0.2" />
  <rect x="36" y="58" width="48" height="20" rx="6" fill="#e8f0fe" />
  <path d="M40 62h20" stroke="#0b57d0" stroke-width="4" stroke-linecap="round" />
  <path d="M40 70h28" stroke="#0b57d0" stroke-width="4" stroke-linecap="round" opacity="0.7" />
  <circle cx="44" cy="46" r="4" fill="#0b57d0" />
  <circle cx="56" cy="46" r="4" fill="#5f6368" opacity="0.6" />
  <circle cx="68" cy="46" r="4" fill="#5f6368" opacity="0.4" />
</svg>
