<svg xmlns="http://www.w3.org/2000/svg" viewBox="0 0 96 96" fill="none">
  <rect x="14" y="8" width="52" height="80" rx="6" ry="6" fill="#e53935"/>
  <path d="M34 20h12v8H34zM26 36h28v8H26zM26 52h28v8H26z" fill="#fff" opacity="0.85"/>
  <path d="M58 16h12l12 14v48a6 6 0 0 1-6 6H58a6 6 0 0 1-6-6V22a6 6 0 0 1 6-6z" fill="#ff7043"/>
  <path d="M70 16v10a4 4 0 0 0 4 4h10" fill="none" stroke="#ffe0b2" stroke-width="4" stroke-linecap="round" stroke-linejoin="round"/>
  <path d="M38 68h20" stroke="#fff" stroke-width="6" stroke-linecap="round" opacity="0.8"/>
</svg>
