<svg xmlns="http://www.w3.org/2000/svg" viewBox="0 0 120 120" role="img" aria-hidden="true">
  <rect x="10" y="16" width="100" height="88" rx="22" fill="#f1f3f4" stroke="#d2d7dc" stroke-width="2" />
  <rect x="30" y="32" width="60" height="44" rx="12" fill="#ffffff" stroke="#c4c8cc" stroke-width="2" />
  <rect x="30" y="36" width="8" height="36" rx="4" fill="#e8f0fe" />
  <rect x="82" y="36" width="8" height="36" rx="4" fill="#e8f0fe" />
  <path d="M56 46 70 56 56 66z" fill="#1a73e8" />
  <g fill="none" stroke="#5f6368" stroke-width="3" stroke-linecap="round">
    <path d="M40 44h8" />
    <path d="M40 52h8" />
    <path d="M40 60h8" />
    <path d="M72 44h8" opacity="0.6" />
    <path d="M72 52h8" opacity="0.6" />
    <path d="M72 60h8" opacity="0.6" />
  </g>
  <g stroke="#0b57d0" stroke-width="4" stroke-linecap="round" stroke-linejoin="round" fill="none">
    <path d="M60 82v10" />
    <path d="M68 96H52" />
  </g>
  <path d="M60 102 52 94h16z" fill="#0b57d0" />
  <rect x="42" y="78" width="36" height="6" rx="3" fill="#1a73e8" opacity="0.15" />
</svg>
